<?xml version="1.0" encoding="UTF-8" standalone="no"?>
<svg
   xmlns:dc="http://purl.org/dc/elements/1.1/"
   xmlns:cc="http://creativecommons.org/ns#"
   xmlns:rdf="http://www.w3.org/1999/02/22-rdf-syntax-ns#"
   xmlns:svg="http://www.w3.org/2000/svg"
   xmlns="http://www.w3.org/2000/svg"
   xmlns:sodipodi="http://sodipodi.sourceforge.net/DTD/sodipodi-0.dtd"
   xmlns:inkscape="http://www.inkscape.org/namespaces/inkscape"
   sodipodi:docname="logo sivi.svg"
   inkscape:version="1.0 (4035a4fb49, 2020-05-01)"
   id="svg3292"
   version="1.1"
   viewBox="0 0 66 24"
   height="24mm"
   width="66mm">
  <defs
     id="defs3286" />
  <sodipodi:namedview
     inkscape:window-maximized="1"
     inkscape:window-y="-9"
     inkscape:window-x="-9"
     inkscape:window-height="1001"
     inkscape:window-width="1920"
     showgrid="false"
     inkscape:document-rotation="0"
     inkscape:current-layer="layer1"
     inkscape:document-units="mm"
     inkscape:cy="609.57772"
     inkscape:cx="666.29735"
     inkscape:zoom="0.49497475"
     inkscape:pageshadow="2"
     inkscape:pageopacity="0.0"
     borderopacity="1.0"
     bordercolor="#666666"
     pagecolor="#ffffff"
     id="base" />
  <metadata
     id="metadata3289">
    <rdf:RDF>
      <cc:Work
         rdf:about="">
        <dc:format>image/svg+xml</dc:format>
        <dc:type
           rdf:resource="http://purl.org/dc/dcmitype/StillImage" />
        <dc:title></dc:title>
      </cc:Work>
    </rdf:RDF>
  </metadata>
  <g
     id="layer1"
     inkscape:groupmode="layer"
     inkscape:label="Layer 1">
    <g
       transform="matrix(0.35277777,0,0,-0.35277777,-64.107872,144.59824)"
       id="g1666">
      <g
         transform="translate(333.77437,385.75675)"
         id="g1067">
        <path
           id="path1069"
           style="fill:#9e9c9d;fill-opacity:1;fill-rule:nonzero;stroke:none"
           d="M 0,0 C -0.387,-1.82 -1.248,-3.104 -2.582,-3.848 -3.914,-4.594 -5.989,-4.967 -8.797,-4.967 H -9.45 L -7.756,3 c 0.267,1.1 1.25,1.918 2.43,1.918 V 4.922 C -1.105,4.814 0.676,3.178 0,0 m 21.674,11.35 c -3.28,2.543 -8.663,3.816 -16.15,3.816 h -31.196 c -3.153,0 -5.789,-2.184 -6.498,-5.119 l -4.254,-20.043 h 51.457 l 0.225,0.096 c 5.607,2.509 8.926,6.095 9.941,10.867 0.93,4.379 -0.246,7.838 -3.525,10.383" />
      </g>
      <g
         transform="translate(275.19817,400.92275)"
         id="g1071">
        <path
           id="path1073"
           style="fill:#9e9c9d;fill-opacity:1;fill-rule:nonzero;stroke:none"
           d="m 0,0 c -3.172,0 -5.822,-2.209 -6.51,-5.172 l -4.254,-19.99 H 15.113 L 20.465,0 Z" />
      </g>
      <g
         transform="translate(242.18597,400.92275)"
         id="g1075">
        <path
           id="path1077"
           style="fill:#9e9c9d;fill-opacity:1;fill-rule:nonzero;stroke:none"
           d="m 0,0 h -0.001 c -3.213,0 -5.895,-2.266 -6.54,-5.287 L -9.073,-17.199 -19.063,0 h -13.1 c -3.207,0 -5.884,-2.256 -6.535,-5.268 l -4.235,-19.894 H 15.141 L 20.494,0 Z" />
      </g>
      <g
         transform="translate(195.59567,358.58285)"
         id="g1079">
        <path
           id="path1081"
           style="fill:#9e9c9d;fill-opacity:1;fill-rule:nonzero;stroke:none"
           d="m 0,0 h 25.871 l 0.536,2.52 H 0.537 Z" />
      </g>
      <g
         transform="translate(196.49897,362.82505)"
         id="g1083">
        <path
           id="path1085"
           style="fill:#9e9c9d;fill-opacity:1;fill-rule:nonzero;stroke:none"
           d="m 0,0 h 25.869 l 0.553,2.607 H 0.555 Z" />
      </g>
      <g
         transform="translate(224.68307,362.82505)"
         id="g1087">
        <path
           id="path1089"
           style="fill:#9e9c9d;fill-opacity:1;fill-rule:nonzero;stroke:none"
           d="m 0,0 h 29.893 l 0.554,2.607 H -1.492 Z" />
      </g>
      <g
         transform="translate(197.42037,367.15125)"
         id="g1091">
        <path
           id="path1093"
           style="fill:#9e9c9d;fill-opacity:1;fill-rule:nonzero;stroke:none"
           d="m 0,0 h 58.076 l 0.545,2.563 H 0.545 Z" />
      </g>
      <g
         transform="translate(198.33097,371.43445)"
         id="g1095">
        <path
           id="path1097"
           style="fill:#9e9c9d;fill-opacity:1;fill-rule:nonzero;stroke:none"
           d="M 0,0 H 58.076 L 58.63,2.604 H 0.555 Z" />
      </g>
      <g
         transform="translate(227.11227,358.58285)"
         id="g1099">
        <path
           id="path1101"
           style="fill:#9e9c9d;fill-opacity:1;fill-rule:nonzero;stroke:none"
           d="m 0,0 h 26.561 l 0.536,2.52 H -1.444 Z" />
      </g>
      <g
         transform="translate(232.18207,350.13565)"
         id="g1103">
        <path
           id="path1105"
           style="fill:#9e9c9d;fill-opacity:1;fill-rule:nonzero;stroke:none"
           d="m 0,0 h 14.332 c 2.023,0.016 3.829,0.93 5.045,2.361 H -1.586 Z" />
      </g>
      <g
         transform="translate(229.61027,354.21965)"
         id="g1107">
        <path
           id="path1109"
           style="fill:#9e9c9d;fill-opacity:1;fill-rule:nonzero;stroke:none"
           d="m 0,0 h 23.008 c 0.159,0.375 0.287,0.768 0.376,1.174 l 0.312,1.469 H -1.512 Z" />
      </g>
      <g
         transform="translate(193.79777,350.13755)"
         id="g1111">
        <path
           id="path1113"
           style="fill:#9e9c9d;fill-opacity:1;fill-rule:nonzero;stroke:none"
           d="m 0,0 20.555,-0.01 c 2.006,0.031 3.794,0.946 4.999,2.369 H 0.515 Z" />
      </g>
      <g
         transform="translate(194.66647,354.21965)"
         id="g1115">
        <path
           id="path1117"
           style="fill:#9e9c9d;fill-opacity:1;fill-rule:nonzero;stroke:none"
           d="m 0,0 h 25.742 c 0.16,0.381 0.29,0.777 0.378,1.191 l 0.006,-0.002 0.309,1.454 H 0.563 Z" />
      </g>
      <g
         transform="translate(294.60247,362.82505)"
         id="g1119">
        <path
           id="path1121"
           style="fill:#9e9c9d;fill-opacity:1;fill-rule:nonzero;stroke:none"
           d="m 0,0 h 25.903 l 0.554,2.607 H 0.555 Z" />
      </g>
      <g
         transform="translate(262.60297,367.15125)"
         id="g1123">
        <path
           id="path1125"
           style="fill:#9e9c9d;fill-opacity:1;fill-rule:nonzero;stroke:none"
           d="m 0,0 h 25.879 l 0.545,2.563 H 0.545 Z" />
      </g>
      <g
         transform="translate(261.68207,362.82505)"
         id="g1127">
        <path
           id="path1129"
           style="fill:#9e9c9d;fill-opacity:1;fill-rule:nonzero;stroke:none"
           d="m 0,0 h 25.879 l 0.555,2.607 H 0.556 Z" />
      </g>
      <g
         transform="translate(263.51457,371.43245)"
         id="g1131">
        <path
           id="path1133"
           style="fill:#9e9c9d;fill-opacity:1;fill-rule:nonzero;stroke:none"
           d="m 0,0 h 25.877 l 0.554,2.605 H 0.554 Z" />
      </g>
      <g
         transform="translate(321.42667,367.15125)"
         id="g1135">
        <path
           id="path1137"
           style="fill:#9e9c9d;fill-opacity:1;fill-rule:nonzero;stroke:none"
           d="M 0,0 0.544,2.563 H -25.361 L -25.905,0 Z" />
      </g>
      <g
         transform="translate(293.70207,358.58285)"
         id="g1139">
        <path
           id="path1141"
           style="fill:#9e9c9d;fill-opacity:1;fill-rule:nonzero;stroke:none"
           d="m 0,0 h 59.556 c 0.57,0.797 1.065,1.633 1.464,2.52 H 0.535 Z" />
      </g>
      <g
         transform="translate(292.77627,354.21965)"
         id="g1143">
        <path
           id="path1145"
           style="fill:#9e9c9d;fill-opacity:1;fill-rule:nonzero;stroke:none"
           d="m 0,0 h 55.863 c 1.2,0.799 2.264,1.68 3.182,2.641 H 0.561 Z" />
      </g>
      <g
         transform="translate(328.16107,362.82505)"
         id="g1147">
        <path
           id="path1149"
           style="fill:#9e9c9d;fill-opacity:1;fill-rule:nonzero;stroke:none"
           d="m 0,0 h 27.199 c 0.136,0.438 0.261,0.879 0.358,1.336 0.093,0.437 0.157,0.857 0.205,1.271 H 1.859 C 1.457,1.496 0.838,0.625 0,0" />
      </g>
      <g
         transform="translate(330.19917,369.71375)"
         id="g1151">
        <path
           id="path1153"
           style="fill:#9e9c9d;fill-opacity:1;fill-rule:nonzero;stroke:none"
           d="M 0,0 C 0.3,-0.707 0.384,-1.559 0.247,-2.563 H 25.802 C 25.765,-1.639 25.593,-0.789 25.289,0 Z" />
      </g>
      <g
         transform="translate(260.77927,358.58285)"
         id="g1155">
        <path
           id="path1157"
           style="fill:#9e9c9d;fill-opacity:1;fill-rule:nonzero;stroke:none"
           d="m 0,0 h 25.88 l 0.536,2.52 H 0.538 Z" />
      </g>
      <g
         transform="translate(291.90917,350.13755)"
         id="g1159">
        <path
           id="path1161"
           style="fill:#9e9c9d;fill-opacity:1;fill-rule:nonzero;stroke:none"
           d="m 0,0 40.805,0.012 c 5.018,0 9.232,0.765 12.789,2.347 H 0.501 Z" />
      </g>
      <g
         transform="translate(322.33687,371.43445)"
         id="g1163">
        <path
           id="path1165"
           style="fill:#9e9c9d;fill-opacity:1;fill-rule:nonzero;stroke:none"
           d="m 0,0 h 0.342 c 0.439,0.488 1.071,0.795 1.775,0.818 1.759,-0.013 3.14,-0.285 4.131,-0.82 h 25.951 c -0.664,0.92 -1.531,1.795 -2.602,2.607 h -54.951 l -0.553,-2.607 H 0 Z" />
      </g>
      <g
         transform="translate(259.85147,354.21965)"
         id="g1167">
        <path
           id="path1169"
           style="fill:#9e9c9d;fill-opacity:1;fill-rule:nonzero;stroke:none"
           d="m 0,0 h 25.753 c 0.161,0.381 0.292,0.781 0.381,1.195 L 26.44,2.643 H 0.563 Z" />
      </g>
      <g
         transform="translate(258.98337,350.13755)"
         id="g1171">
        <path
           id="path1173"
           style="fill:#9e9c9d;fill-opacity:1;fill-rule:nonzero;stroke:none"
           d="m 0,0 20.463,-0.01 v 0.006 c 2.045,0 3.871,0.92 5.098,2.365 H 0.502 Z" />
      </g>
    </g>
  </g>
</svg>
